<svg viewBox="0 0 512 512" xml:space="preserve" xmlns="http://www.w3.org/2000/svg" enable-background="new 0 0 512 512"><path d="M485.234 366.68c-63.793-10.528-92.547-76.049-93.709-78.83-.09-.179-.15-.361-.268-.539-3.248-6.636-4.027-12.112-2.24-16.267 3.492-8.196 16.852-12.439 25.682-15.258 2.564-.8 4.984-1.579 6.98-2.357 8.705-3.441 14.912-7.177 19.025-11.395 4.895-5.059 5.846-9.897 5.785-13.041-.15-7.655-5.99-14.47-15.322-17.793-3.137-1.284-6.74-1.97-10.383-1.97-2.475 0-6.178.327-9.662 1.97-7.463 3.502-14.143 5.415-19.898 5.68-3.035-.149-5.189-.806-6.59-1.429.178-2.995.359-6.074.57-9.243l.086-1.38c2.057-32.384 4.592-72.669-6.086-96.595-7.301-16.386-17.123-30.472-29.197-41.9-10.107-9.568-21.857-17.345-34.926-23.082-22.693-10.05-43.871-11.545-54.488-11.545h-1.195c-2.949.028-7.748.088-8.203.088-10.584 0-31.789 1.496-54.545 11.546-13.035 5.743-24.725 13.486-34.808 23.058-12.019 11.424-21.802 25.478-29.082 41.804-10.673 23.896-8.143 64.183-6.111 96.539v.061c.205 3.469.449 7.089.656 10.619-1.553.688-4.088 1.46-7.814 1.46-6.023 0-13.182-1.911-21.268-5.713-2.387-1.102-5.1-1.674-8.082-1.674-4.799 0-9.898 1.411-14.287 4.012-5.545 3.257-9.126 7.833-10.111 12.944-.627 3.352-.594 10.021 6.803 16.78 4.082 3.712 10.049 7.149 17.775 10.199 2.029.808 4.443 1.558 6.979 2.357 8.831 2.818 22.218 7.062 25.71 15.258 1.758 4.154.98 9.631-2.268 16.267-.09.178-.184.36-.239.539-.835 1.912-8.438 19.11-24.038 37.267-8.859 10.316-18.609 18.955-28.992 25.658-12.676 8.189-26.363 13.515-40.711 15.878a11.168 11.168 0 0 0-9.338 11.665 14.24 14.24 0 0 0 1.168 4.872v.027c2.291 5.353 7.574 9.872 16.166 13.851 10.496 4.872 26.186 8.973 46.674 12.171 1.041 1.978 2.115 6.908 2.859 10.283.779 3.596 1.59 7.303 2.748 11.216 1.251 4.249 4.471 9.333 12.797 9.333 3.158 0 6.769-.72 10.973-1.521 6.141-1.202 14.559-2.846 25.027-2.846 5.816 0 11.84.505 17.892 1.526 11.69 1.94 21.773 9.061 33.436 17.315 17.059 12.08 36.389 25.748 65.912 25.748.805 0 1.611-.027 2.416-.088.957.061 2.176.088 3.432.088 29.527 0 48.85-13.668 65.912-25.721l.033-.027c11.658-8.226 21.74-15.342 33.432-17.288 6.055-1.015 12.074-1.526 17.891-1.526 10.021 0 17.959 1.287 25.027 2.667 4.623.89 8.203 1.345 10.979 1.345h.535c6.084 0 10.555-3.35 12.258-9.182 1.135-3.857 1.939-7.444 2.74-11.124.689-3.174 1.824-8.255 2.836-10.232 20.488-3.225 36.178-7.295 46.68-12.171 8.559-3.979 13.838-8.492 16.129-13.817.689-1.585 1.105-3.226 1.199-4.933.327-5.652-3.702-10.704-9.341-11.604zm0 0" fill="#c8ccc9" class="fill-ffeb3b"></path></svg>